<svg width="28" height="25" viewBox="0 0 28 25" fill="none" xmlns="http://www.w3.org/2000/svg">
<path d="M6.31387 12.4932C5.75691 12.4932 5.22277 12.7128 4.82894 13.1037C4.43512 13.4946 4.21387 14.0248 4.21387 14.5777C4.21387 15.1305 4.43512 15.6607 4.82894 16.0516C5.22277 16.4425 5.75691 16.6621 6.31387 16.6621C6.87082 16.6621 7.40497 16.4425 7.79879 16.0516C8.19262 15.6607 8.41387 15.1305 8.41387 14.5777C8.41387 14.0248 8.19262 13.4946 7.79879 13.1037C7.40497 12.7128 6.87082 12.4932 6.31387 12.4932ZM21.7139 12.4932C21.1569 12.4932 20.6228 12.7128 20.2289 13.1037C19.8351 13.4946 19.6139 14.0248 19.6139 14.5777C19.6139 15.1305 19.8351 15.6607 20.2289 16.0516C20.6228 16.4425 21.1569 16.6621 21.7139 16.6621C22.2708 16.6621 22.805 16.4425 23.1988 16.0516C23.5926 15.6607 23.8139 15.1305 23.8139 14.5777C23.8139 14.0248 23.5926 13.4946 23.1988 13.1037C22.805 12.7128 22.2708 12.4932 21.7139 12.4932Z" fill="#7D7D7D"/>
<path d="M26.292 8.54644L24.374 2.84883C24.0965 2.01704 23.5612 1.29362 22.8446 0.781968C22.128 0.270319 21.2667 -0.00336668 20.384 3.12614e-05H7.63C6.74778 -0.00124969 5.88755 0.273258 5.17135 0.78461C4.45516 1.29596 3.91937 2.01819 3.64 2.84883L1.722 8.54644C0.714 8.96333 0 9.96389 0 11.1034V18.0517C0 19.0801 0.574 19.9694 1.4 20.4419V23.6103C1.4 24.3747 2.03 25 2.8 25H4.2C4.97 25 5.6 24.3747 5.6 23.6103V20.831H22.4V23.6103C22.4 24.3747 23.03 25 23.8 25H25.2C25.97 25 26.6 24.3747 26.6 23.6103V20.4419C27.0232 20.1994 27.3751 19.8512 27.6207 19.4319C27.8663 19.0126 27.9971 18.5367 28 18.0517V11.1034C28 9.94999 27.286 8.96333 26.278 8.54644H26.292ZM7.63 2.76545H20.398C20.6915 2.7647 20.9778 2.85553 21.2165 3.0251C21.4551 3.19467 21.6341 3.43441 21.728 3.71042L23.282 8.32409H4.76L6.314 3.71042C6.40792 3.43441 6.58686 3.19467 6.82552 3.0251C7.06418 2.85553 7.3505 2.7647 7.644 2.76545H7.63ZM2.814 18.0517V11.1034H25.214V18.0517H2.814Z" fill="#7D7D7D"/>
</svg>
