<svg width="27" height="27" viewBox="0 0 27 27" fill="none" xmlns="http://www.w3.org/2000/svg">
<path d="M12.1122 12.1112L5.16797 5.16846" stroke="#7D7D7D" stroke-width="2"/>
<path d="M3.77929 7.25146L7.25138 3.78009L3.08487 1.69727L1.69603 3.08582L3.77929 7.25146ZM24.5771 9.29957C25.2439 8.63351 25.7026 7.78799 25.8974 6.86596C26.0922 5.94394 26.0147 4.98517 25.6743 4.1064L23.6994 6.08092H20.9217V3.30382L22.8966 1.32931C22.0176 0.988198 21.0583 0.910051 20.1357 1.10439C19.213 1.29872 18.3668 1.75715 17.7002 2.42382C17.0335 3.09049 16.5752 3.93662 16.381 4.85912C16.1868 5.78162 16.2652 6.74067 16.6066 7.61943L7.62081 16.6047C6.74187 16.2634 5.78262 16.1851 4.85992 16.3792C3.93723 16.5733 3.09092 17.0316 2.42411 17.6981C1.75731 18.3646 1.29878 19.2106 1.10441 20.1331C0.910032 21.0556 0.988196 22.0146 1.32938 22.8935L3.30291 20.9189H6.08059V23.696L4.10566 25.6705C4.98446 26.0117 5.94349 26.0899 6.86598 25.8958C7.78847 25.7017 8.63461 25.2436 9.30134 24.5773C9.96808 23.911 10.4266 23.0653 10.6212 22.1431C10.8157 21.2208 10.7379 20.262 10.3971 19.3832L19.3856 10.3965C20.2642 10.7363 21.2226 10.8135 22.1443 10.6187C23.066 10.424 23.9112 9.96569 24.5771 9.29957Z" stroke="#7D7D7D" stroke-width="2" stroke-linejoin="round"/>
<path d="M13.2188 16.972L21.0018 24.7534C21.1759 24.9279 21.3828 25.0663 21.6105 25.1607C21.8382 25.2551 22.0823 25.3037 22.3288 25.3037C22.5753 25.3037 22.8194 25.2551 23.0472 25.1607C23.2749 25.0663 23.4817 24.9279 23.6559 24.7534L24.7558 23.6537C24.9303 23.4796 25.0687 23.2728 25.1632 23.0451C25.2576 22.8174 25.3062 22.5734 25.3062 22.3269C25.3062 22.0805 25.2576 21.8364 25.1632 21.6088C25.0687 21.3811 24.9303 21.1743 24.7558 21.0002L16.9728 13.2188" stroke="#7D7D7D" stroke-width="2" stroke-linejoin="round"/>
</svg>
