<svg width="16" height="16" viewBox="0 0 16 16" fill="none" xmlns="http://www.w3.org/2000/svg">
<g clip-path="url(#clip0_225_15)">
<path d="M14.6668 7.99992C14.6668 11.6819 11.6822 14.6666 8.00016 14.6666C4.31816 14.6666 1.3335 11.6819 1.3335 7.99992C1.3335 4.31792 4.31816 1.33325 8.00016 1.33325C11.6822 1.33325 14.6668 4.31792 14.6668 7.99992Z" stroke="black" stroke-linecap="round" stroke-linejoin="round"/>
<path d="M8.00033 12.3332C9.1496 12.3332 10.2518 11.8766 11.0645 11.064C11.8771 10.2513 12.3337 9.14911 12.3337 7.99984C12.3337 6.85057 11.8771 5.74837 11.0645 4.93571C10.2518 4.12305 9.1496 3.6665 8.00033 3.6665M8.00033 12.3332C6.85105 12.3332 5.74885 11.8766 4.9362 11.064C4.12354 10.2513 3.66699 9.14911 3.66699 7.99984C3.66699 6.85057 4.12354 5.74837 4.9362 4.93571C5.74885 4.12305 6.85105 3.6665 8.00033 3.6665M8.00033 12.3332V8.99984M8.00033 3.6665V6.99984M11.7537 5.83317L8.86699 7.49984M7.13433 8.49984L4.24766 10.1665M11.7537 10.1665L8.86699 8.49984M7.13433 7.49984L4.24766 5.83317" stroke="black" stroke-linecap="round" stroke-linejoin="round"/>
<path d="M9 8C9 8.26522 8.89464 8.51957 8.70711 8.70711C8.51957 8.89464 8.26522 9 8 9C7.73478 9 7.48043 8.89464 7.29289 8.70711C7.10536 8.51957 7 8.26522 7 8C7 7.73478 7.10536 7.48043 7.29289 7.29289C7.48043 7.10536 7.73478 7 8 7C8.26522 7 8.51957 7.10536 8.70711 7.29289C8.89464 7.48043 9 7.73478 9 8Z" stroke="black" stroke-linecap="round" stroke-linejoin="round"/>
</g>
<defs>
<clipPath id="clip0_225_15">
<rect width="16" height="16" fill="white"/>
</clipPath>
</defs>
</svg>
