<svg width="16" height="16" viewBox="0 0 16 16" fill="none" xmlns="http://www.w3.org/2000/svg">
<g clip-path="url(#clip0_225_20)">
<path d="M3.29701 3C2.62901 3 2.01201 3.334 1.64051 3.8905L0.250009 5.969C0.0863645 6.21408 -0.000660798 6.50231 8.58887e-06 6.797V10.1095C-0.000913324 10.3315 0.0724062 10.5474 0.208306 10.7228C0.344206 10.8983 0.534882 11.0233 0.750009 11.078L2.04701 11.4065C2.14029 11.8559 2.38528 12.2595 2.74089 12.5496C3.09649 12.8398 3.54106 12.9988 4.00001 13C4.92601 13 5.69901 12.3595 5.92201 11.5H10.578C10.801 12.3595 11.574 13 12.5 13C13.426 13 14.199 12.3595 14.422 11.5H15C15.547 11.5 16 11.047 16 10.5V8.672C15.9994 8.22637 15.8499 7.79372 15.5753 7.44272C15.3008 7.09171 14.9169 6.84245 14.4845 6.7345L11.781 6.047L9.82801 3.719C9.64107 3.49432 9.40704 3.31346 9.14248 3.18922C8.87792 3.06497 8.58929 3.00038 8.29701 3H3.29701ZM3.29701 4H5.50001V6H1.43751L2.46901 4.453V4.4375C2.5595 4.30134 2.68262 4.18998 2.82715 4.11357C2.97168 4.03715 3.13353 3.99811 3.29701 4ZM6.50001 4H8.29701C8.59351 4 8.87301 4.131 9.06251 4.3595L10.4375 6H6.50001V4ZM1.00001 7H11.4375L14.25 7.703C14.4658 7.75655 14.6573 7.88134 14.7934 8.05719C14.9295 8.23303 15.0023 8.44965 15 8.672V10.5H14.422C14.199 9.6405 13.426 9 12.5 9C11.574 9 10.801 9.6405 10.578 10.5H5.92201C5.69901 9.6405 4.92601 9 4.00001 9C3.11351 9 2.36901 9.586 2.10951 10.3905L1.00001 10.11V7ZM4.00001 10C4.55851 10 5.00001 10.4415 5.00001 11C5.00001 11.5585 4.55851 12 4.00001 12C3.44151 12 3.00001 11.5585 3.00001 11C3.00001 10.4415 3.44151 10 4.00001 10ZM12.5 10C13.0585 10 13.5 10.4415 13.5 11C13.5 11.5585 13.0585 12 12.5 12C11.9415 12 11.5 11.5585 11.5 11C11.5 10.4415 11.9415 10 12.5 10Z" fill="black"/>
</g>
<defs>
<clipPath id="clip0_225_20">
<rect width="16" height="16" fill="white"/>
</clipPath>
</defs>
</svg>
