<svg width="25" height="25" viewBox="0 0 25 25" fill="none" xmlns="http://www.w3.org/2000/svg">
<rect width="25" height="25" rx="12.5" fill="#5451CC"/>
<path d="M12.5 16.875C12.8315 16.875 13.1495 17.0067 13.3839 17.2411C13.6183 17.4755 13.75 17.7935 13.75 18.125C13.75 18.4565 13.6183 18.7745 13.3839 19.0089C13.1495 19.2433 12.8315 19.375 12.5 19.375C12.1685 19.375 11.8505 19.2433 11.6161 19.0089C11.3817 18.7745 11.25 18.4565 11.25 18.125C11.25 17.7935 11.3817 17.4755 11.6161 17.2411C11.8505 17.0067 12.1685 16.875 12.5 16.875ZM12.5 5.625C12.8315 5.625 13.1495 5.7567 13.3839 5.99112C13.6183 6.22554 13.75 6.54348 13.75 6.875V14.375C13.75 14.7065 13.6183 15.0245 13.3839 15.2589C13.1495 15.4933 12.8315 15.625 12.5 15.625C12.1685 15.625 11.8505 15.4933 11.6161 15.2589C11.3817 15.0245 11.25 14.7065 11.25 14.375V6.875C11.25 6.54348 11.3817 6.22554 11.6161 5.99112C11.8505 5.7567 12.1685 5.625 12.5 5.625Z" fill="white"/>
</svg>
