<svg width="27" height="26" viewBox="0 0 27 26" fill="none" xmlns="http://www.w3.org/2000/svg">
<path d="M7.94444 8.05882H19.0556M7.94444 13.7059H16.2778M21.8333 1C22.9384 1 23.9982 1.44622 24.7796 2.24049C25.561 3.03476 26 4.11202 26 5.23529V16.5294C26 17.6527 25.561 18.7299 24.7796 19.5242C23.9982 20.3185 22.9384 20.7647 21.8333 20.7647H14.8889L7.94444 25V20.7647H5.16667C4.0616 20.7647 3.00179 20.3185 2.22039 19.5242C1.43899 18.7299 1 17.6527 1 16.5294V5.23529C1 4.11202 1.43899 3.03476 2.22039 2.24049C3.00179 1.44622 4.0616 1 5.16667 1H21.8333Z" stroke="#7D7D7D" stroke-width="2" stroke-linecap="round" stroke-linejoin="round"/>
</svg>
