<svg width="25" height="25" viewBox="0 0 25 25" fill="none" xmlns="http://www.w3.org/2000/svg">
<path d="M21.0479 0C21.3763 0 21.6912 0.131696 21.9234 0.366116C22.1556 0.600537 22.2861 0.918479 22.2861 1.25V5.94625L19.8098 8.44625V2.5H2.47623V22.5H19.8098V19.0525L22.2861 16.5525V23.75C22.2861 24.0815 22.1556 24.3995 21.9234 24.6339C21.6912 24.8683 21.3763 25 21.0479 25H1.23811C0.909746 25 0.594827 24.8683 0.362635 24.6339C0.130444 24.3995 0 24.0815 0 23.75V1.25C0 0.918479 0.130444 0.600537 0.362635 0.366116C0.594827 0.131696 0.909746 0 1.23811 0H21.0479ZM23.2493 8.51L25 10.2775L15.3699 20L13.6168 19.9975L13.6193 18.2325L23.2493 8.51ZM12.3811 12.5V15H6.19057V12.5H12.3811ZM16.0955 7.5V10H6.19057V7.5H16.0955Z" fill="#7D7D7D"/>
</svg>
