<svg width="25" height="25" viewBox="0 0 25 25" fill="none" xmlns="http://www.w3.org/2000/svg">
<path d="M2.77778 22.2222H4.75694L18.3333 8.64583L16.3542 6.66667L2.77778 20.2431V22.2222ZM1.38889 25C0.99537 25 0.665741 24.8667 0.4 24.6C0.134259 24.3333 0.000925926 24.0037 0 23.6111V20.2431C0 19.8727 0.0694446 19.5194 0.208333 19.1833C0.347222 18.8472 0.543981 18.5523 0.798611 18.2986L18.3333 0.798611C18.6111 0.543981 18.9181 0.347222 19.2542 0.208333C19.5903 0.0694446 19.9431 0 20.3125 0C20.6819 0 21.0407 0.0694446 21.3889 0.208333C21.737 0.347222 22.038 0.555555 22.2917 0.833333L24.2014 2.77778C24.4792 3.03241 24.6815 3.33333 24.8083 3.68056C24.9352 4.02778 24.9991 4.375 25 4.72222C25 5.09259 24.9361 5.44583 24.8083 5.78194C24.6806 6.11806 24.4782 6.42454 24.2014 6.70139L6.70139 24.2014C6.44676 24.456 6.15139 24.6528 5.81528 24.7917C5.47917 24.9306 5.12639 25 4.75694 25H1.38889ZM17.3264 7.67361L16.3542 6.66667L18.3333 8.64583L17.3264 7.67361Z" fill="black"/>
</svg>
