<svg width="22" height="25" viewBox="0 0 22 25" fill="none" xmlns="http://www.w3.org/2000/svg">
<path d="M18.2958 5.50005V4.97149C18.2958 2.842 16.306 1.22682 14.218 1.77101C12.9595 -0.645976 9.59754 -0.545878 8.42427 1.80748C6.39713 1.29181 4.37759 2.82936 4.37759 4.98047V11.1391C3.39776 10.7765 2.25086 10.8917 1.32887 11.5723C-0.112671 12.6366 -0.428872 14.6647 0.614361 16.1208L6.5057 24.3441C6.65103 24.547 6.843 24.7123 7.06563 24.8264C7.28825 24.9405 7.53508 25 7.78553 25H18.7314C19.4633 25 20.0983 24.4976 20.2626 23.7884L21.7449 17.394C21.9143 16.6627 21.9999 15.9147 22 15.1642V8.74023C22 6.75684 20.2556 5.22501 18.2958 5.50005ZM19.6427 15.1642C19.6427 15.737 19.5772 16.3101 19.448 16.8676L18.1061 22.6562H8.19042L2.53347 14.7609C1.82441 13.7711 3.27121 12.6722 3.97693 13.6571L5.30911 15.5164C5.75083 16.1329 6.73474 15.8234 6.73474 15.0632V4.98047C6.73474 3.72828 8.53064 3.76905 8.53064 5.01421V12.5C8.53064 12.9315 8.88239 13.2812 9.31635 13.2812H9.65303C10.087 13.2812 10.4387 12.9315 10.4387 12.5V3.27149C10.4387 2.01842 12.2346 2.06007 12.2346 3.30523V12.5C12.2346 12.9315 12.5864 13.2812 13.0204 13.2812H13.357C13.791 13.2812 14.1428 12.9315 14.1428 12.5V4.93775C14.1428 3.68424 15.9386 3.72633 15.9386 4.97149V12.5C15.9386 12.9315 16.2904 13.2812 16.7243 13.2812H17.061C17.495 13.2812 17.8468 12.9315 17.8468 12.5V8.77397C17.8468 7.49263 19.6426 7.52202 19.6426 8.74023V15.1642H19.6427Z" fill="black"/>
</svg>
