<svg width="25" height="25" viewBox="0 0 25 25" fill="none" xmlns="http://www.w3.org/2000/svg">
<path d="M23.5417 25C20.6481 25 17.7894 24.3694 14.9653 23.1083C12.1412 21.8472 9.57176 20.0588 7.25694 17.7431C4.94213 15.4273 3.15417 12.8579 1.89306 10.0347C0.631944 7.21157 0.000925926 4.35278 0 1.45833C0 1.04167 0.138889 0.694444 0.416667 0.416667C0.694444 0.138889 1.04167 0 1.45833 0H7.08333C7.40741 0 7.69676 0.110185 7.95139 0.330555C8.20602 0.550926 8.35648 0.811111 8.40278 1.11111L9.30556 5.97222C9.35185 6.34259 9.34028 6.65509 9.27083 6.90972C9.20139 7.16435 9.07407 7.38426 8.88889 7.56944L5.52083 10.9722C5.9838 11.8287 6.53333 12.656 7.16944 13.4542C7.80555 14.2523 8.50602 15.0222 9.27083 15.7639C9.98843 16.4815 10.7407 17.1472 11.5278 17.7611C12.3148 18.375 13.1481 18.9361 14.0278 19.4444L17.2917 16.1806C17.5 15.9722 17.7722 15.8162 18.1083 15.7125C18.4444 15.6088 18.7741 15.5796 19.0972 15.625L23.8889 16.5972C24.213 16.6898 24.4792 16.8579 24.6875 17.1014C24.8958 17.3449 25 17.6167 25 17.9167V23.5417C25 23.9583 24.8611 24.3056 24.5833 24.5833C24.3056 24.8611 23.9583 25 23.5417 25ZM4.20139 8.33333L6.49306 6.04167L5.90278 2.77778H2.8125C2.92824 3.72685 3.09028 4.66435 3.29861 5.59028C3.50694 6.5162 3.80787 7.43056 4.20139 8.33333ZM16.6319 20.7639C17.5347 21.1574 18.4551 21.4699 19.3931 21.7014C20.331 21.9329 21.2741 22.0833 22.2222 22.1528V19.0972L18.9583 18.4375L16.6319 20.7639Z" fill="black"/>
</svg>
