<svg width="28" height="28" viewBox="0 0 28 28" fill="none" xmlns="http://www.w3.org/2000/svg">
<path d="M1.25 6.80556H26.25M10.625 12.3611V20.6944M16.875 12.3611V20.6944M2.8125 6.80556L4.375 23.4722C4.375 24.2089 4.70424 24.9155 5.29029 25.4364C5.87634 25.9573 6.6712 26.25 7.5 26.25H20C20.8288 26.25 21.6237 25.9573 22.2097 25.4364C22.7958 24.9155 23.125 24.2089 23.125 23.4722L24.6875 6.80556M9.0625 6.80556V2.63889C9.0625 2.27053 9.22712 1.91726 9.52015 1.6568C9.81317 1.39633 10.2106 1.25 10.625 1.25H16.875C17.2894 1.25 17.6868 1.39633 17.9799 1.6568C18.2729 1.91726 18.4375 2.27053 18.4375 2.63889V6.80556" stroke="#EC1C24" stroke-width="2.5" stroke-linecap="round" stroke-linejoin="round"/>
</svg>
